<?xml version="1.0" standalone="no"?>
<!DOCTYPE svg PUBLIC "-//W3C//DTD SVG 20010904//EN"
 "http://www.w3.org/TR/2001/REC-SVG-20010904/DTD/svg10.dtd">
<svg version="1.0" xmlns="http://www.w3.org/2000/svg"
 width="700.000000pt" height="700.000000pt" viewBox="0 0 700.000000 700.000000"
 preserveAspectRatio="xMidYMid meet">
<metadata>
Created by potrace 1.14, written by Peter Selinger 2001-2017
</metadata>
<g transform="translate(0.000000,700.000000) scale(0.100000,-0.100000)"
fill="#000000" stroke="none">
<path d="M2231 6924 c-35 -8 -77 -21 -94 -29 -17 -8 -34 -15 -39 -15 -20 0
-155 -95 -199 -139 -101 -101 -180 -261 -196 -395 -3 -28 -6 -417 -6 -863 l0
-813 -71 0 c-149 0 -156 -15 -157 -355 l0 -260 -66 -55 c-36 -30 -71 -59 -77
-65 -6 -5 -40 -35 -76 -65 -36 -30 -67 -57 -70 -60 -3 -3 -34 -30 -70 -60 -36
-30 -70 -59 -76 -65 -6 -5 -35 -30 -64 -55 -29 -25 -58 -50 -64 -55 -42 -40
-40 -40 -425 -39 l-371 1 0 -113 0 -114 415 0 414 0 83 67 c46 37 85 69 88 72
4 5 99 87 170 147 98 84 257 221 268 231 7 7 34 29 60 50 26 21 49 41 52 45
15 20 127 60 179 65 58 5 60 4 75 -26 l16 -30 -225 -226 c-184 -185 -225 -231
-231 -260 -8 -47 11 -92 50 -116 29 -18 62 -19 652 -19 589 0 622 -1 637 -18
10 -10 17 -28 17 -40 0 -19 -23 -51 -38 -53 -4 0 -207 -2 -452 -3 -488 -2
-486 -2 -515 -61 -19 -41 -19 -68 0 -105 32 -62 14 -60 693 -60 587 0 620 -1
635 -18 30 -33 20 -74 -23 -89 -14 -5 -295 -9 -625 -8 -457 1 -606 -1 -625
-11 -61 -29 -85 -96 -56 -152 32 -63 24 -62 578 -62 277 0 508 -4 515 -8 6 -4
16 -19 22 -34 8 -22 6 -31 -9 -50 l-18 -23 -504 -1 c-276 -1 -508 -2 -515 -3
-6 0 -25 -13 -42 -27 -57 -47 -50 -137 13 -175 29 -17 55 -19 329 -19 287 0
367 -9 220 -25 -38 -4 -75 -8 -83 -10 -8 -1 -42 -6 -75 -9 -33 -4 -73 -9 -90
-11 -16 -3 -86 -12 -155 -20 -69 -9 -138 -18 -155 -20 -147 -22 -134 -24 -545
95 l-385 112 -390 0 c-214 0 -398 -1 -407 -1 -16 -1 -18 -13 -18 -111 0 -60 3
-111 8 -111 4 -1 180 -2 392 -3 l385 -2 115 -33 c63 -17 142 -40 175 -50 56
-17 82 -25 228 -66 l57 -16 0 -551 c0 -602 0 -600 58 -629 22 -10 176 -13 787
-14 650 -2 760 -4 757 -16 -2 -8 -6 -46 -9 -85 -7 -89 14 -161 66 -230 70 -94
164 -138 316 -149 44 -3 96 -8 115 -10 37 -4 143 -14 225 -21 28 -2 70 -6 95
-9 25 -2 74 -7 110 -10 74 -6 125 -11 225 -20 79 -8 130 -12 225 -20 36 -3 83
-7 105 -10 22 -2 72 -7 110 -10 39 -3 86 -8 105 -10 19 -2 71 -7 115 -10 44
-3 94 -8 110 -10 17 -2 64 -7 105 -10 41 -3 89 -7 105 -9 108 -14 241 -21 380
-20 199 0 256 6 498 49 40 7 143 25 174 31 16 3 66 12 113 20 47 9 92 17 100
19 33 6 86 15 110 20 14 3 63 12 110 20 47 8 94 17 105 19 11 2 40 7 65 12 25
4 48 9 53 10 4 1 12 2 18 3 7 1 9 16 6 44 -7 48 -25 144 -32 168 -5 14 -25 12
-178 -17 -188 -36 -323 -61 -377 -69 -19 -4 -53 -10 -75 -15 -22 -5 -58 -11
-80 -15 -42 -6 -74 -12 -113 -19 -200 -41 -287 -50 -482 -50 -177 -1 -332 6
-412 19 -13 2 -59 6 -103 10 -44 3 -98 8 -120 10 -22 2 -71 7 -110 10 -38 3
-81 8 -95 10 -14 2 -61 6 -105 10 -44 3 -96 7 -115 10 -19 2 -75 7 -124 10
-50 4 -97 8 -105 10 -9 1 -56 6 -106 10 -49 4 -103 8 -120 10 -16 2 -61 7
-100 10 -38 3 -86 7 -105 10 -19 2 -73 7 -120 10 -47 4 -97 8 -112 10 -15 2
-66 6 -115 10 -141 12 -175 20 -200 48 -63 70 -35 183 51 203 17 4 389 8 826
9 873 1 824 -2 907 61 93 71 132 221 85 328 -11 25 -82 127 -157 227 -141 187
-168 232 -161 271 3 13 5 31 5 40 1 28 50 77 87 87 69 19 84 7 371 -278 162
-162 281 -273 296 -276 45 -12 1277 -11 1278 0 4 32 3 215 -1 216 -3 1 -273 2
-601 3 l-595 1 -250 249 -249 250 0 1298 c-1 1293 -1 1298 -21 1325 -31 41
-61 53 -136 53 -64 0 -68 1 -69 23 -4 93 -3 301 1 308 3 4 53 9 110 10 119 2
192 17 257 56 179 105 247 338 153 523 -33 64 -108 138 -173 170 -61 29 -136
49 -170 44 -22 -3 -22 -1 8 44 14 21 32 68 41 105 53 212 -103 417 -326 431
-58 4 -132 -14 -187 -45 -29 -16 -54 -29 -57 -29 -2 0 -6 19 -10 42 -16 101
-107 231 -203 291 -138 87 -332 88 -476 4 -85 -50 -187 -186 -203 -270 -5 -27
-9 -47 -13 -65 -1 -2 -16 6 -35 17 -185 115 -422 46 -515 -149 -22 -47 -26
-69 -26 -145 0 -91 11 -134 47 -187 26 -38 23 -44 -23 -47 -23 -1 -60 -8 -82
-16 -23 -8 -42 -13 -44 -11 -1 1 -4 135 -6 297 -2 162 -7 305 -10 318 -32 126
-72 212 -132 286 -97 120 -187 183 -330 231 -97 32 -252 40 -354 18z m267
-227 c145 -37 286 -185 321 -338 6 -26 11 -223 11 -480 l0 -437 -37 -15 c-91
-36 -177 -160 -185 -264 -1 -18 -7 -34 -13 -34 -5 -1 -107 -2 -225 -3 l-215
-1 -3 -112 c-3 -112 -2 -113 20 -114 13 0 115 -1 228 -1 l205 0 -1 56 c-1 65
8 62 25 -7 16 -65 65 -168 107 -223 19 -24 34 -46 34 -49 0 -3 -190 -5 -423
-5 l-422 0 0 828 c1 763 2 832 19 887 45 152 164 269 316 312 44 12 189 12
238 0z m1800 -238 c48 -24 88 -70 108 -126 9 -25 13 -89 14 -186 0 -162 7
-184 61 -213 66 -33 100 -17 219 103 109 111 130 125 179 119 53 -6 78 -21
101 -59 43 -69 22 -117 -100 -238 -48 -47 -94 -97 -103 -110 -32 -45 -14 -119
37 -152 20 -14 56 -17 197 -18 128 0 182 -4 208 -15 119 -50 144 -194 50 -279
-21 -19 -42 -35 -47 -36 -4 0 -16 -3 -27 -5 -11 -3 -95 -5 -187 -5 -153 -1
-169 -3 -197 -23 -37 -26 -51 -55 -51 -106 l0 -40 -72 49 c-69 46 -178 93
-243 106 -16 4 -69 8 -116 10 -126 4 -226 -17 -340 -75 -43 -22 -100 -63 -149
-107 -14 -13 -27 -23 -30 -22 -3 0 -21 33 -40 72 -52 107 -177 230 -290 285
-110 54 -191 74 -310 76 -83 1 -97 3 -91 16 13 34 40 62 77 80 34 18 59 20
212 20 144 0 179 3 202 17 43 25 56 59 51 127 0 11 -51 69 -111 131 -66 66
-114 124 -119 141 -24 89 56 176 145 159 29 -5 61 -30 150 -117 97 -94 118
-110 152 -115 44 -6 89 14 112 51 9 14 14 69 16 178 2 130 6 164 22 200 26 58
70 97 134 119 62 21 114 17 176 -12z m-992 -1242 c168 -62 277 -183 310 -344
14 -69 11 -115 -10 -146 -35 -52 -55 -57 -223 -56 -170 1 -238 14 -318 59
-114 65 -187 162 -219 291 -26 107 -10 175 48 203 42 20 353 15 412 -7z m-699
-189 c-3 -8 -6 -5 -6 6 -1 11 2 17 5 13 3 -3 4 -12 1 -19z m1821 -35 c78 -23
135 -57 193 -114 53 -52 119 -159 119 -194 0 -13 -51 -15 -435 -15 -357 0
-435 2 -435 13 0 32 67 144 115 191 117 116 296 164 443 119z m-2508 -554 c3
-4 5 -55 5 -114 l-1 -108 -71 -3 c-39 -1 -88 -7 -110 -13 -21 -6 -40 -11 -43
-11 -7 0 -5 234 2 246 7 11 210 13 218 3z m451 2 c3 0 6 -205 6 -453 l0 -453
-111 1 -111 2 -3 448 c-1 277 1 450 7 454 8 4 189 6 212 1z m2615 -1189 c1
-1083 -1 -1192 -15 -1193 -137 -7 -275 -121 -311 -257 -13 -51 -16 -144 -5
-192 13 -60 44 -109 181 -292 73 -98 138 -186 144 -197 14 -27 -3 -69 -32 -76
-13 -3 -545 -4 -1183 -3 l-1160 3 0 518 0 518 31 24 c44 34 76 103 83 178 1 4
50 7 109 7 130 0 182 15 246 71 41 36 83 104 91 146 2 10 4 44 4 76 1 45 4 57
17 57 33 0 118 56 150 99 35 45 64 123 64 171 0 148 -126 278 -277 285 -32 2
-60 3 -63 4 -3 1 -6 29 -6 64 -2 81 -29 141 -87 194 -67 62 -104 74 -234 78
-61 2 -115 5 -120 8 -9 6 -11 877 -1 892 4 7 411 10 1190 10 l1183 -1 1 -1192z
m-3062 321 c-1 -16 -2 -31 -3 -34 -1 -3 -15 -4 -31 -1 l-30 4 32 29 c18 16 33
29 34 29 0 0 0 -12 -2 -27z m453 -1953 c0 -372 -2 -409 -16 -397 -8 6 -60 56
-113 109 l-98 98 0 284 c0 157 3 287 8 289 4 3 36 8 71 11 36 4 66 7 67 9 1 1
20 3 42 4 l39 2 0 -409z m-453 75 l-1 -266 -109 -110 c-60 -60 -111 -109 -114
-109 -6 0 -5 728 2 735 2 2 26 7 54 10 27 3 71 8 99 11 27 3 52 7 54 10 13 13
16 -37 15 -281z m175 -536 c14 -15 46 -48 71 -73 l44 -46 -179 0 -180 0 90 90
c99 100 86 97 154 29z"/>
<path d="M2192 6032 l-43 -3 3 -112 3 -112 223 0 c122 0 223 2 223 5 1 3 2 52
3 109 1 73 -2 105 -11 108 -14 6 -338 9 -401 5z"/>
<path d="M2150 5465 l0 -115 227 2 228 3 0 110 0 110 -227 2 -228 3 0 -115z"/>
<path d="M3969 5917 c0 -1 -3 -14 -5 -29 -15 -90 -78 -161 -166 -185 l-59 -16
3 -111 3 -111 35 3 c204 18 386 193 406 389 l7 63 -112 -1 c-61 0 -111 -1
-112 -2z"/>
<path d="M4310 5765 c0 -23 9 -68 20 -100 53 -153 167 -258 327 -299 108 -28
103 -33 103 97 l0 112 -51 12 c-29 7 -67 24 -85 38 -41 32 -83 100 -88 146
l-3 34 -112 1 -111 0 0 -41z"/>
</g>
</svg>
